<svg width="87" height="97" viewBox="0 0 87 97" fill="none" xmlns="http://www.w3.org/2000/svg">
<g clip-path="url(#clip0_333_2)">
<path d="M87.4999 -20.25C71.0694 -20.25 57.7499 -6.93047 57.7499 9.5C57.7499 25.9305 71.0694 39.25 87.4999 39.25C103.93 39.25 117.25 25.9305 117.25 9.5C117.25 -6.93047 103.93 -20.25 87.4999 -20.25Z" stroke="white" stroke-opacity="0.05" stroke-width="10.5"/>
<path d="M87.4999 -46.5C56.5719 -46.5 31.4999 -21.4279 31.4999 9.5C31.4999 40.4279 56.5719 65.5 87.4999 65.5C118.428 65.5 143.5 40.4279 143.5 9.5C143.5 -21.4279 118.428 -46.5 87.4999 -46.5Z" stroke="white" stroke-opacity="0.05" stroke-width="10.5"/>
<path d="M87.4999 -72.75C42.0745 -72.75 5.24988 -35.9254 5.24988 9.5C5.24988 54.9254 42.0745 91.75 87.4999 91.75C132.925 91.75 169.75 54.9254 169.75 9.5C169.75 -35.9254 132.925 -72.75 87.4999 -72.75Z" stroke="white" stroke-opacity="0.05" stroke-width="10.5"/>
</g>
<defs>
<clipPath id="clip0_333_2">
<rect width="87" height="97" fill="white" transform="matrix(-1 0 0 -1 86.9999 97)"/>
</clipPath>
</defs>
</svg>
