<svg width="1440" height="589" viewBox="0 0 1440 589" fill="none" xmlns="http://www.w3.org/2000/svg">
<path d="M-473.962 502.934C-440.929 384.428 -395.816 259.385 -304.167 172.118C-184.093 57.7769 -14.0865 39.9801 120.064 78.7373C254.223 117.498 364.156 202.662 483.385 270.042C602.611 337.42 741.945 388.223 890.335 351.763C1096.13 301.206 1265.2 98.2969 1468.15 21.0297C1637.37 -43.4005 1820.25 -7.46844 1925.9 110.969" stroke="#DFE4FF" stroke-opacity="0.05" stroke-width="1.33333" stroke-miterlimit="10"/>
<path d="M-375.239 546.525C-343.991 434.42 -301.311 316.131 -214.616 233.58C-101.026 125.414 59.7898 108.583 186.7 145.241C313.61 181.91 417.603 262.478 530.388 326.214C643.174 389.957 774.979 438.01 915.355 403.523C1110.05 355.693 1269.97 163.748 1461.96 90.6506C1622.04 29.7045 1795.03 63.6955 1894.98 175.733" stroke="#DFE4FF" stroke-opacity="0.05" stroke-width="1.33333" stroke-miterlimit="10"/>
<path d="M-276.514 590.126C-247.05 484.419 -206.811 372.891 -125.065 295.053C-17.96 193.066 133.67 177.193 253.33 211.763C372.995 246.33 471.051 322.298 577.398 382.394C683.74 442.493 808.023 487.81 940.383 455.291C1123.95 410.193 1274.75 229.206 1455.77 160.287C1606.71 102.818 1769.82 134.87 1864.06 240.514" stroke="#DFE4FF" stroke-opacity="0.05" stroke-width="1.33333" stroke-miterlimit="10"/>
<path d="M-177.787 633.72C-150.109 534.42 -112.303 429.64 -35.5095 356.514C65.1096 260.706 207.559 245.798 319.972 278.271C432.385 310.744 524.502 382.117 624.405 438.575C724.309 495.033 841.065 537.601 965.408 507.049C1137.86 464.683 1279.53 294.66 1449.58 229.916C1591.38 175.927 1744.62 206.034 1833.15 305.283" stroke="#DFE4FF" stroke-opacity="0.05" stroke-width="1.33333" stroke-miterlimit="10"/>
<path d="M-93.018 687.109C-67.1277 594.205 -31.759 496.187 40.0861 427.774C134.216 338.143 267.479 324.193 372.65 354.571C477.815 384.958 563.996 451.72 657.46 504.543C750.922 557.359 860.151 597.183 976.474 568.608C1137.81 528.965 1270.34 369.908 1429.43 309.335C1562.09 258.828 1705.45 286.995 1788.27 379.845" stroke="#DFE4FF" stroke-opacity="0.05" stroke-width="1.33333" stroke-miterlimit="10"/>
</svg>
