<svg id="SvgjsSvg1016" width="288" height="288" xmlns="http://www.w3.org/2000/svg" version="1.1" xmlns:xlink="http://www.w3.org/1999/xlink" xmlns:svgjs="http://svgjs.com/svgjs"><defs id="SvgjsDefs1017"></defs><g id="SvgjsG1018"><svg xmlns="http://www.w3.org/2000/svg" viewBox="0 0 47.5 47.5" width="288" height="288"><defs><clipPath id="a"><path d="M0 38h38V0H0v38Z" fill="#364f6b" class="color000 svgShape"></path></clipPath></defs><g clip-path="url(#a)" transform="matrix(1.25 0 0 -1.25 0 47.5)" fill="#364f6b" class="color000 svgShape"><path fill="#00c6ff" d="M37 5a4 4 0 0 0-4-4H5a4 4 0 0 0-4 4v28a4 4 0 0 0 4 4h28a4 4 0 0 0 4-4V5Z" class="colordd2e44 svgShape"></path><path fill="#f0f0f0" d="M16.087 16.62h5.891l-2.883 8.992h-.062l-2.946-8.992Zm-.341 11.256c.528 1.426 1.737 2.573 3.318 2.573 1.643 0 2.791-1.085 3.317-2.573l6.078-16.867c.185-.496.248-.931.248-1.148 0-1.209-.993-2.046-2.139-2.046-1.303 0-1.954.682-2.264 1.612l-.93 2.915h-8.62l-.93-2.884c-.31-.961-.962-1.643-2.233-1.643-1.24 0-2.294.93-2.294 2.17 0 .496.155.868.217 1.024l6.232 16.867z" class="colorfff svgShape"></path></g></svg></g></svg>