<svg id="SvgjsSvg1106" width="288" height="288" xmlns="http://www.w3.org/2000/svg" version="1.1" xmlns:xlink="http://www.w3.org/1999/xlink" xmlns:svgjs="http://svgjs.com/svgjs"><defs id="SvgjsDefs1107"></defs><g id="SvgjsG1108"><svg xmlns="http://www.w3.org/2000/svg" viewBox="0 0 47.5 47.5" width="288" height="288"><defs><clipPath id="a"><path d="M0 38h38V0H0v38Z" fill="#000000" class="color000 svgShape"></path></clipPath></defs><g clip-path="url(#a)" transform="matrix(1.25 0 0 -1.25 0 47.5)" fill="#000000" class="color000 svgShape"><path fill="#ff6ddb" d="M37 5a4 4 0 0 0-4-4H5a4 4 0 0 0-4 4v28a4 4 0 0 0 4 4h28a4 4 0 0 0 4-4V5Z" class="color3b88c3 svgShape"></path><path fill="#ffffff" d="M14.707 12.28h3.132c4 0 5.828 2.945 5.828 6.666 0 3.969-1.859 6.852-6.138 6.852h-2.822V12.28Zm-4.65 15.409c0 1.427.992 2.388 2.387 2.388h5.147c6.946 0 10.914-4.465 10.914-11.348 0-6.511-4.216-10.728-10.604-10.728h-5.395c-1.024 0-2.449.558-2.449 2.325v17.363z" class="colorfff svgShape"></path></g></svg></g></svg>