<svg id="SvgjsSvg1177" width="288" height="288" xmlns="http://www.w3.org/2000/svg" version="1.1" xmlns:xlink="http://www.w3.org/1999/xlink" xmlns:svgjs="http://svgjs.com/svgjs"><defs id="SvgjsDefs1178"></defs><g id="SvgjsG1179"><svg xmlns="http://www.w3.org/2000/svg" viewBox="0 0 47.5 47.5" width="288" height="288"><defs><clipPath id="a"><path d="M0 38h38V0H0v38Z" fill="#000000" class="color000 svgShape"></path></clipPath></defs><g clip-path="url(#a)" transform="matrix(1.25 0 0 -1.25 0 47.5)" fill="#000000" class="color000 svgShape"><path fill="#52cc99" d="M37 5a4 4 0 0 0-4-4H5a4 4 0 0 0-4 4v28a4 4 0 0 0 4 4h28a4 4 0 0 0 4-4V5Z" class="color3b88c3 svgShape"></path><path fill="#ffffff" d="M13.513 27.658c0 1.271.868 2.418 2.419 2.418h7.937c1.365 0 2.078-1.054 2.078-2.139 0-1.054-.683-2.139-2.078-2.139h-5.705v-4.527h4.807c1.488 0 2.232-1.054 2.232-2.109 0-1.085-.744-2.17-2.232-2.17h-4.807v-6.759c0-1.551-.992-2.418-2.325-2.418-1.334 0-2.326.867-2.326 2.418v17.425Z" class="colorfff svgShape"></path></g></svg></g></svg>