<svg id="SvgjsSvg1238" width="288" height="288" xmlns="http://www.w3.org/2000/svg" version="1.1" xmlns:xlink="http://www.w3.org/1999/xlink" xmlns:svgjs="http://svgjs.com/svgjs"><defs id="SvgjsDefs1239"></defs><g id="SvgjsG1240"><svg xmlns="http://www.w3.org/2000/svg" viewBox="0 0 47.5 47.5" width="288" height="288"><defs><clipPath id="a"><path d="M0 38h38V0H0v38Z" fill="#000000" class="color000 svgShape"></path></clipPath></defs><g clip-path="url(#a)" transform="matrix(1.25 0 0 -1.25 0 47.5)" fill="#000000" class="color000 svgShape"><path fill="#ffbf66" d="M37 5a4 4 0 0 0-4-4H5a4 4 0 0 0-4 4v28a4 4 0 0 0 4 4h28a4 4 0 0 0 4-4V5Z" class="color3b88c3 svgShape"></path><path fill="#ffffff" d="M26.5 30a2.5 2.5 0 0 1-2.5-2.5V22H14v5.5a2.5 2.5 0 1 1-5 0v-17a2.5 2.5 0 1 1 5 0V17h10v-6.5a2.5 2.5 0 1 1 5 0v17a2.5 2.5 0 0 1-2.5 2.5" class="colorfff svgShape"></path></g></svg></g></svg>