<svg id="SvgjsSvg1268" width="288" height="288" xmlns="http://www.w3.org/2000/svg" version="1.1" xmlns:xlink="http://www.w3.org/1999/xlink" xmlns:svgjs="http://svgjs.com/svgjs"><defs id="SvgjsDefs1269"></defs><g id="SvgjsG1270"><svg xmlns="http://www.w3.org/2000/svg" viewBox="0 0 47.5 47.5" width="288" height="288"><defs><clipPath id="a"><path d="M0 38h38V0H0v38Z" fill="#000000" class="color000 svgShape"></path></clipPath></defs><g clip-path="url(#a)" transform="matrix(1.25 0 0 -1.25 0 47.5)" fill="#000000" class="color000 svgShape"><path fill="#3bc379" d="M37 5a4 4 0 0 0-4-4H5a4 4 0 0 0-4 4v28a4 4 0 0 0 4 4h28a4 4 0 0 0 4-4V5Z" class="color3b88c3 svgShape"></path><path fill="#ffffff" d="M16.675 27.844c0 1.55.992 2.418 2.326 2.418 1.333 0 2.325-.868 2.325-2.418V10.233c0-1.551-.992-2.418-2.325-2.418-1.334 0-2.326.867-2.326 2.418v17.611Z" class="colorfff svgShape"></path></g></svg></g></svg>