<svg id="SvgjsSvg1558" width="288" height="288" xmlns="http://www.w3.org/2000/svg" version="1.1" xmlns:xlink="http://www.w3.org/1999/xlink" xmlns:svgjs="http://svgjs.com/svgjs"><defs id="SvgjsDefs1559"></defs><g id="SvgjsG1560"><svg xmlns="http://www.w3.org/2000/svg" viewBox="0 0 47.5 47.5" width="288" height="288"><defs><clipPath id="a"><path d="M0 38h38V0H0v38Z" fill="#000000" class="color000 svgShape"></path></clipPath></defs><g clip-path="url(#a)" transform="matrix(1.25 0 0 -1.25 0 47.5)" fill="#000000" class="color000 svgShape"><path fill="#003852" d="M37 5a4 4 0 0 0-4-4H5a4 4 0 0 0-4 4v28a4 4 0 0 0 4 4h28a4 4 0 0 0 4-4V5Z" class="color3b88c3 svgShape"></path><path fill="#ffffff" d="M24.088 15.07c.526 1.179.744 2.542.744 3.969 0 3.689-1.954 7.131-5.829 7.131-3.876 0-5.83-3.379-5.83-7.131 0-3.782 1.892-7.132 5.83-7.132a9.96 9.96 0 0 1 1.983.218l-1.115 1.085c-.342.31-.59.806-.59 1.24 0 1.209.838 2.232 2.109 2.232.434 0 .805-.155 1.178-.403l1.52-1.209Zm.371-6.077c-1.519-.868-3.348-1.364-5.456-1.364-6.295 0-10.666 4.992-10.666 11.41 0 6.449 4.34 11.41 10.666 11.41 6.231 0 10.665-5.116 10.665-11.41 0-2.729-.713-5.209-2.078-7.162l1.768-1.52c.589-.527 1.085-1.023 1.085-1.891 0-1.085-1.085-1.954-2.138-1.954-.684 0-1.24.28-2.078.993l-1.768 1.488z" class="colorfff svgShape"></path></g></svg></g></svg>