<svg id="SvgjsSvg1698" width="288" height="288" xmlns="http://www.w3.org/2000/svg" version="1.1" xmlns:xlink="http://www.w3.org/1999/xlink" xmlns:svgjs="http://svgjs.com/svgjs"><defs id="SvgjsDefs1699"></defs><g id="SvgjsG1700"><svg xmlns="http://www.w3.org/2000/svg" enable-background="new 0 0 47.5 47.5" viewBox="0 0 47.5 47.5" width="288" height="288"><defs><clipPath id="a"><path d="M0 38h38V0H0v38Z" fill="#000000" class="color000 svgShape"></path></clipPath></defs><g clip-path="url(#a)" transform="matrix(1.25 0 0 -1.25 0 47.5)" fill="#000000" class="color000 svgShape"><path fill="#3bc3b6" d="M0 0a4 4 0 0 0-4-4h-28a4 4 0 0 0-4 4v28a4 4 0 0 0 4 4h28a4 4 0 0 0 4-4V0Z" transform="translate(37 5)" class="color3b88c3 svgShape"></path><path fill="#ffffff" d="M0 0c0 1.55 1.167 2.418 2.5 2.418S5 1.55 5 0v-10.821c0-2.853 2.055-4.923 5-4.923 2.822 0 5 2.194 5 4.923V0c0 1.55 1.168 2.418 2.5 2.418 1.334 0 2.467-.868 2.467-2.418v-11.069c0-5.209-4.852-9.147-9.967-9.147-5.178 0-10 3.876-10 9.147V0Z" transform="translate(9 27.844)" class="colorfff svgShape"></path></g></svg></g></svg>