<svg id="SvgjsSvg1788" width="288" height="288" xmlns="http://www.w3.org/2000/svg" version="1.1" xmlns:xlink="http://www.w3.org/1999/xlink" xmlns:svgjs="http://svgjs.com/svgjs"><defs id="SvgjsDefs1789"></defs><g id="SvgjsG1790"><svg xmlns="http://www.w3.org/2000/svg" enable-background="new 0 0 47.5 47.5" viewBox="0 0 47.5 47.5" width="288" height="288"><defs><clipPath id="a"><path d="M0 38h38V0H0v38Z" fill="#000000" class="color000 svgShape"></path></clipPath></defs><g clip-path="url(#a)" transform="matrix(1.25 0 0 -1.25 0 47.5)" fill="#000000" class="color000 svgShape"><path fill="#e2a3a3" d="M0 0a4 4 0 0 0-4-4h-28a4 4 0 0 0-4 4v28a4 4 0 0 0 4 4h28a4 4 0 0 0 4-4V0Z" transform="translate(37 5)" class="color3b88c3 svgShape"></path><path fill="#ffffff" d="m0 0-5.022 6.821c-.311.403-.497.868-.497 1.365 0 1.364 1.023 2.263 2.357 2.263.775 0 1.581-.527 2.015-1.147l3.845-5.457 3.844 5.457c.435.62 1.241 1.147 2.015 1.147 1.334 0 2.358-.899 2.358-2.263 0-.497-.186-.962-.497-1.365L5.395 0l6.139-8.248c.248-.341.527-.93.527-1.581 0-1.303-.992-2.17-2.355-2.17-.838 0-1.457.371-1.923 1.022l-5.085 7.07-5.085-7.07c-.466-.651-1.086-1.022-1.923-1.022-1.364 0-2.356.867-2.356 2.17 0 .651.279 1.24.527 1.581L0 0Z" transform="translate(16.304 19.814)" class="colorfff svgShape"></path></g></svg></g></svg>